<?xml version="1.0" encoding="UTF-8"?>
<svg width="400" height="140" version="1.1" xmlns="http://www.w3.org/2000/svg">
 <path d="m111.6 108.58h65.029v16.283h-65.029z" fill="#3fd8d4"/>
 <path d="m354.76 126.81h4.7515v-18.25h-4.7515zm-20.11 0v-18.25h6.0077l5.9534 11.42h0.12824v-11.42h4.6464v18.25h-6.0028l-5.9288-11.42h-0.12824v11.42h-4.671zm-17.796 0v-18.25h8.9524c1.2528 0 2.3133 0.20395 3.1814 0.61136 0.87304 0.40741 1.5241 0.98921 1.9582 1.7484 0.43405 0.7557 0.65601 1.6651 0.65601 2.7252 0 0.85077-0.22689 1.6301-0.68068 2.3331-0.45378 0.70299-1.0013 1.2227-1.6425 1.5503 0.76453 0.36652 1.4008 0.90349 1.9039 1.6153 0.50311 0.71186 0.7596 1.574 0.7596 2.5809s-0.2121 1.8961-0.62642 2.6607c-0.41926 0.76505-1.0654 1.3616-1.9335 1.7868-0.86811 0.42525-1.9483 0.63787-3.2357 0.63787zm8.3506-10.927c0.37979 0 0.71027-0.0739 0.98155-0.22119 0.26635-0.14778 0.47351-0.34878 0.61162-0.59952 0.13811-0.25125 0.2121-0.54338 0.2121-0.87443 0-0.52268-0.15291-0.93009-0.45872-1.2252-0.30088-0.29558-0.74973-0.44288-1.3416-0.44288h-3.6845v3.3632h3.6845zm0.26141 6.9634c0.3798 0 0.71028-0.068 0.97663-0.20938 0.27128-0.13892 0.47351-0.33401 0.61162-0.58771 0.14304-0.25125 0.21209-0.55225 0.21209-0.90103 0-0.50495-0.1529-0.90644-0.45378-1.2104-0.30581-0.30445-0.75466-0.4547-1.3466-0.4547h-3.941v3.3632zm-26.009 8.0384 2.1111-5.2151-5.1692-12.601h3.2949l3.3886 8.664h0.12824l3.2998-8.664h3.2209l-7.0682 17.816h-3.211zm-4.7845-14.819c-0.50311-1.0779-1.2035-1.8902-2.1012-2.4366-0.89771-0.54584-1.9286-0.82073-3.0926-0.82073-0.92236 0-1.7165 0.17439-2.3873 0.52268-0.67081 0.3483-1.1986 0.77393-1.5784 1.2789h-0.13318v-6.0481h-3.0778v18.25h2.9496v-1.6418h0.12824c0.47351 0.57294 1.0407 1.0335 1.7116 1.382 0.67081 0.34844 1.4649 0.52268 2.3873 0.52268 1.1641 0 2.1949-0.27464 3.0926-0.82092 0.8977-0.54924 1.5981-1.3557 2.1012-2.4247 0.50804-1.069 0.7596-2.3592 0.7596-3.8711 0-1.5124-0.25156-2.8056-0.7596-3.8864zm-2.7523 6.2959c-0.30582 0.65274-0.72014 1.14-1.243 1.4587-0.52283 0.32218-1.1246 0.48179-1.8003 0.48179-0.68068 0-1.2824-0.15961-1.8003-0.48179-0.52284-0.32169-0.93716-0.80891-1.238-1.4587-0.30581-0.65274-0.45872-1.4557-0.45872-2.4124 0-0.95718 0.15291-1.7631 0.45872-2.4247 0.30087-0.66161 0.7152-1.1518 1.238-1.4735 0.52283-0.32169 1.1197-0.48131 1.8003-0.48131 1.026 0 1.8645 0.36898 2.5155 1.1074 0.65602 0.73797 0.98156 1.8306 0.98156 3.2721 0 0.9567-0.15291 1.7597-0.45378 2.4124z" fill="#757575"/>
 <path d="m221.34 31.37c-19.049 0-34.547 15.252-34.547 33.997v35.08h16.252v-35.08c0-9.7492 8.3851-17.681 18.294-17.681 9.9043 0 18.285 7.9314 18.285 17.681v35.08h16.257v-35.08c0-18.745-15.498-33.997-34.547-33.997zm-128.56 2.0986-13.411 39.381-12.484-26.784c-1.3663-2.7489-4.1284-4.478-7.157-4.478-3.0275 0-5.7922 1.7292-7.1555 4.478l-13.53 26.745-12.238-39.342h-16.806l19.704 63.316c0.98156 3.1568 3.7492 5.3953 6.9957 5.6608 3.2495 0.25716 6.3303-1.4942 7.7967-4.45l15.238-30.708 15.236 30.708c1.3663 2.7583 4.1432 4.4766 7.152 4.4766 0.2121 0 0.42419-9e-3 0.63629-0.0266 3.2455-0.26257 6.0126-2.4952 6.9991-5.649l19.818-63.328h-16.79zm266.74 0.0246c-8.977 0-16.252 7.2663-16.252 16.232l1e-5 50.721h16.257v-44.662c0-3.3647 2.7276-6.089 6.0965-6.089h24.381l-1e-5 -16.203zm-41.699 3.6307c-5.5588-3.5864-12.168-5.6801-19.261-5.6801-19.611 0-35.563 15.932-35.563 35.514 0 19.583 15.956 35.52 35.563 35.52 19.606 0 35.563-15.935 35.563-35.52l-1e-5 -57.845h-16.302zm-19.261 49.068c-10.615 0-19.256-8.628-19.256-19.234 0-10.611 8.6416-19.237 19.256-19.237 10.62 0 19.261 8.6309 19.261 19.237 0 10.601-8.6367 19.234-19.261 19.234zm-154.44-54.753c-19.606 0-35.563 15.937-35.563 35.519 0 19.58 15.956 35.517 35.563 35.517 19.611 0 35.563-15.935 35.563-35.517 0-19.587-15.956-35.519-35.563-35.519zm1e-5 54.753c-10.62 0-19.256-8.628-19.256-19.234 0-10.611 8.6367-19.237 19.256-19.237 10.624 0 19.261 8.6309 19.261 19.237 0 10.601-8.6416 19.234-19.261 19.234z" fill="#ff8500"/>
</svg>
