<svg width="608" height="240" viewBox="0 0 608 240" fill="none" xmlns="http://www.w3.org/2000/svg">
<path d="M57.1256 45.1175C88.2515 19.8886 130.841 21.5444 158.394 48.8173C186.745 76.879 189.718 122.259 165.234 153.196C141.304 183.43 101.319 191.448 68.3894 172.615C35.3137 153.698 20.9395 112.842 34.7065 76.9073C39.4483 64.5301 46.7391 53.9494 57.1256 45.1175ZM150.03 113.493C150.033 104.33 149.918 95.1651 150.094 86.0058C150.167 82.1817 148.669 79.6991 145.375 77.9749C139.599 74.951 133.427 73.0778 127.076 74.6948C118.715 76.8238 110.408 79.3939 102.378 82.5408C89.069 87.7565 75.9761 90.9703 62.674 82.8151C62.577 82.7556 62.3753 82.8668 61.9377 82.9571C61.7458 83.5844 61.3134 84.3436 61.3103 85.1047C61.2543 98.7647 61.087 112.429 61.4216 126.08C61.4686 127.998 63.6268 130.563 65.4923 131.618C74.6838 136.817 84.4075 136.046 94.0749 133.066C101.871 130.663 109.539 127.847 117.33 125.428C127.549 122.255 137.643 121.933 147.333 127.43C147.936 127.773 148.814 127.631 150.03 127.766C150.03 123.106 150.03 118.797 150.03 113.493Z" fill="#138EE8"/>
<path d="M543.905 130.269C542.783 129.104 541.688 127.829 540.569 127.807C531.91 127.639 523.244 127.796 514.584 127.666C511.619 127.622 510.849 128.95 510.969 131.601C511.104 134.593 510.85 137.606 511.043 140.593C511.247 143.742 509.824 144.5 506.909 144.575C494.315 144.901 494.308 144.979 494.32 132.601C494.33 121.774 494.194 110.943 494.424 100.12C494.853 79.927 509.183 65.6096 528.408 65.9048C546.55 66.1833 560.514 81.3993 560.582 101.03C560.628 114.024 560.499 127.019 560.664 140.01C560.709 143.474 559.665 144.606 556.121 144.596C543.917 144.56 543.917 144.689 543.924 132.74C543.924 132.074 543.923 131.407 543.905 130.269ZM512.027 93.9084C511.676 98.0196 511.385 102.137 510.955 106.24C510.599 109.644 511.837 111.009 515.413 110.868C521.549 110.627 527.702 110.909 533.844 110.781C545.532 110.537 543.917 113.085 543.896 100.503C543.881 91.5936 538.648 84.8851 530.933 83.2373C523.196 81.5849 516.473 85.1675 512.027 93.9084Z" fill="#1690E9"/>
<path d="M310.684 80.728C320.49 67.5466 333.87 62.9708 348.218 67.6566C362.358 72.2744 370.989 84.3785 371.084 99.9386C371.164 113.098 371.116 126.258 371.103 139.418C371.101 140.884 370.954 142.35 370.839 144.483C365.938 144.483 361.312 144.637 356.714 144.342C355.886 144.288 354.616 142.437 354.519 141.332C354.229 138.026 354.344 134.675 354.448 131.347C354.522 128.942 353.855 127.638 351.114 127.671C342.453 127.774 333.786 127.595 325.131 127.849C323.99 127.883 322.811 129.721 321.844 130.885C321.516 131.28 321.792 132.175 321.786 132.841C321.68 145.587 320.921 146.284 307.98 144.401C306.887 144.242 305.193 142.475 305.186 141.445C305.084 126.123 304.814 110.78 305.532 95.4865C305.761 90.6012 308.756 85.8455 310.684 80.728ZM337.617 82.961C324.684 84.018 319.181 94.4997 322.62 110.327C322.922 110.448 323.222 110.673 323.525 110.676C330.516 110.732 337.508 110.784 344.499 110.796C355.31 110.814 355.311 110.8 354.552 99.9658C353.839 89.7873 348.199 83.8232 337.617 82.961Z" fill="#1690E9"/>
<path d="M210.302 75.0731C210.407 64.9311 209 66.0191 218.684 65.9833C225.012 65.9599 231.341 65.9272 237.669 65.978C259.402 66.1526 276.554 83.1799 276.606 104.593C276.661 126.885 259.875 144.184 237.79 144.509C230.297 144.62 222.795 144.348 215.31 144.626C211.345 144.774 210.178 143.471 210.212 139.511C210.39 118.196 210.3 96.8782 210.302 75.0731ZM227.007 118.452C227.186 128.76 225.465 127.157 236.05 127.341C237.048 127.359 238.048 127.359 239.044 127.309C250.779 126.716 259.907 117.105 259.902 105.36C259.898 93.292 250.748 83.5364 238.87 83.0032C236.212 82.8839 233.533 83.1309 230.887 82.9195C227.724 82.6667 226.912 84.0649 226.951 87.0099C227.083 97.1591 227.005 107.311 227.007 118.452Z" fill="#1891E9"/>
<path d="M399.821 123C399.824 114.673 399.719 106.844 399.855 99.02C400.174 80.5631 414.455 66.098 432.388 65.9339C450.4 65.7691 465.223 79.8152 465.754 98.1666C466.163 112.31 465.829 126.474 465.923 140.628C465.94 143.299 465.168 144.436 462.263 144.584C449.096 145.259 449.113 145.345 449.135 132.139C449.151 121.814 449.177 111.489 449.113 101.165C449.046 90.2929 442.442 83.0059 432.764 82.9854C423.246 82.9653 416.612 90.3313 416.538 101.242C416.451 114.064 416.415 126.888 416.585 139.708C416.633 143.336 415.627 144.884 411.791 144.58C408.028 144.281 404.223 144.515 399.821 144.515C399.821 137.069 399.821 130.285 399.821 123Z" fill="#1690E9"/>
<path d="M150.03 113.99C150.03 118.797 150.03 123.106 150.03 127.766C148.814 127.631 147.936 127.773 147.333 127.43C137.643 121.933 127.549 122.255 117.33 125.428C109.539 127.847 101.871 130.663 94.0749 133.066C84.4075 136.046 74.6838 136.817 65.4923 131.618C63.6268 130.563 61.4686 127.998 61.4216 126.08C61.087 112.429 61.2543 98.7646 61.3103 85.1046C61.3134 84.3436 61.7458 83.5843 61.9377 82.957C62.3753 82.8667 62.577 82.7555 62.674 82.815C75.9761 90.9702 89.069 87.7564 102.378 82.5407C110.408 79.3938 118.715 76.8237 127.076 74.6948C133.427 73.0777 139.599 74.9509 145.375 77.9748C148.669 79.699 150.167 82.1816 150.094 86.0057C149.918 95.165 150.033 104.33 150.03 113.99Z" fill="#FBFDFF"/>
</svg>
